solid OpenSCAD_Model
  facet normal -0.959493 -0.281732 0
    outer loop
      vertex 16.05 -3.5 0
      vertex 15.5182 -1.68885 2.65
      vertex 15.5182 -1.68885 0
    endloop
  endfacet
  facet normal -0.959493 -0.281732 0
    outer loop
      vertex 15.5182 -1.68885 2.65
      vertex 16.05 -3.5 0
      vertex 16.05 -3.5 2.65
    endloop
  endfacet
  facet normal 1 -0 0
    outer loop
      vertex 9.4857 -4.4438 2.65
      vertex 9.4857 -2.5562 0
      vertex 9.4857 -2.5562 2.65
    endloop
  endfacet
  facet normal 1 0 0
    outer loop
      vertex 9.4857 -2.5562 0
      vertex 9.4857 -4.4438 2.65
      vertex 9.4857 -4.4438 0
    endloop
  endfacet
  facet normal -0.142315 0.989821 0
    outer loop
      vertex 14.0916 -6.54727 0
      vertex 12.2232 -6.8159 2.65
      vertex 14.0916 -6.54727 2.65
    endloop
  endfacet
  facet normal -0.142315 0.989821 0
    outer loop
      vertex 12.2232 -6.8159 2.65
      vertex 14.0916 -6.54727 0
      vertex 12.2232 -6.8159 0
    endloop
  endfacet
  facet normal -0.142315 -0.989821 0
    outer loop
      vertex 12.2232 -0.184098 0
      vertex 14.0916 -0.452733 2.65
      vertex 12.2232 -0.184098 2.65
    endloop
  endfacet
  facet normal -0.142315 -0.989821 -0
    outer loop
      vertex 14.0916 -0.452733 2.65
      vertex 12.2232 -0.184098 0
      vertex 14.0916 -0.452733 0
    endloop
  endfacet
  facet normal -0.654861 -0.75575 0
    outer loop
      vertex 14.0916 -0.452733 0
      vertex 15.5182 -1.68885 2.65
      vertex 14.0916 -0.452733 2.65
    endloop
  endfacet
  facet normal -0.654861 -0.75575 -0
    outer loop
      vertex 15.5182 -1.68885 2.65
      vertex 14.0916 -0.452733 0
      vertex 15.5182 -1.68885 0
    endloop
  endfacet
  facet normal 0.841253 -0.540641 0
    outer loop
      vertex 9.4857 -2.5562 2.65
      vertex 10.5062 -0.96824 0
      vertex 10.5062 -0.96824 2.65
    endloop
  endfacet
  facet normal 0.841253 -0.540641 0
    outer loop
      vertex 10.5062 -0.96824 0
      vertex 9.4857 -2.5562 2.65
      vertex 9.4857 -2.5562 0
    endloop
  endfacet
  facet normal 0.415415 -0.909632 0
    outer loop
      vertex 10.5062 -0.96824 0
      vertex 12.2232 -0.184098 2.65
      vertex 10.5062 -0.96824 2.65
    endloop
  endfacet
  facet normal 0.415415 -0.909632 0
    outer loop
      vertex 12.2232 -0.184098 2.65
      vertex 10.5062 -0.96824 0
      vertex 12.2232 -0.184098 0
    endloop
  endfacet
  facet normal -0.959493 0.281732 0
    outer loop
      vertex 15.5182 -5.31115 0
      vertex 16.05 -3.5 2.65
      vertex 16.05 -3.5 0
    endloop
  endfacet
  facet normal -0.959493 0.281732 0
    outer loop
      vertex 16.05 -3.5 2.65
      vertex 15.5182 -5.31115 0
      vertex 15.5182 -5.31115 2.65
    endloop
  endfacet
  facet normal 0 0 -1
    outer loop
      vertex 12.8882 15.5792 0
      vertex 13.309 85 0
      vertex 13.309 15 0
    endloop
  endfacet
  facet normal 0 0 -1
    outer loop
      vertex 12.8882 15.5792 0
      vertex 12.8882 84.4208 0
      vertex 13.309 85 0
    endloop
  endfacet
  facet normal 0 0 -1
    outer loop
      vertex 12.2073 15.3579 0
      vertex 12.8882 84.4208 0
      vertex 12.8882 15.5792 0
    endloop
  endfacet
  facet normal -0 0 -1
    outer loop
      vertex 12.8882 84.4208 0
      vertex 12.2073 15.3579 0
      vertex 12.2073 84.6421 0
    endloop
  endfacet
  facet normal 0 0 -1
    outer loop
      vertex 25.4 1.81472e-06 0
      vertex 13.309 15 0
      vertex 25.4 100 0
    endloop
  endfacet
  facet normal 0 0 -1
    outer loop
      vertex 13.309 85 0
      vertex 25.4 100 0
      vertex 13.309 15 0
    endloop
  endfacet
  facet normal 0 0 -1
    outer loop
      vertex 12.8882 14.4208 0
      vertex 15.5182 -1.68885 0
      vertex 14.0916 -0.452733 0
    endloop
  endfacet
  facet normal 0 0 -1
    outer loop
      vertex 12.8882 85.5792 0
      vertex 25.4 100 0
      vertex 13.309 85 0
    endloop
  endfacet
  facet normal 0 0 -1
    outer loop
      vertex 25.4 100 0
      vertex 15.5182 101.689 0
      vertex 16.05 103.5 0
    endloop
  endfacet
  facet normal 0 0 -1
    outer loop
      vertex 15.5182 -1.68885 0
      vertex 12.8882 14.4208 0
      vertex 13.309 15 0
    endloop
  endfacet
  facet normal 0 0 -1
    outer loop
      vertex 12.2232 -0.184098 0
      vertex 12.8882 14.4208 0
      vertex 14.0916 -0.452733 0
    endloop
  endfacet
  facet normal 0 0 -1
    outer loop
      vertex 12.2232 -0.184098 0
      vertex 12.2073 14.6421 0
      vertex 12.8882 14.4208 0
    endloop
  endfacet
  facet normal 0 0 -1
    outer loop
      vertex 0 0 0
      vertex 12.2073 15.3579 0
      vertex 12.2073 14.6421 0
    endloop
  endfacet
  facet normal 0 0 -1
    outer loop
      vertex 10.5062 -0.96824 0
      vertex 1.90735e-07 0 0
      vertex 12.2073 14.6421 0
    endloop
  endfacet
  facet normal 0 0 -1
    outer loop
      vertex 1.90735e-07 0 0
      vertex 10.5062 -0.96824 0
      vertex 9.4857 -2.5562 0
    endloop
  endfacet
  facet normal 0 0 -1
    outer loop
      vertex 10.5062 -0.96824 0
      vertex 12.2073 14.6421 0
      vertex 12.2232 -0.184098 0
    endloop
  endfacet
  facet normal 0 0 -1
    outer loop
      vertex 25.1225 -2.64048 0
      vertex 15.5182 -1.68885 0
      vertex 25.4 0 0
    endloop
  endfacet
  facet normal 0 0 -1
    outer loop
      vertex 15.5182 -1.68885 0
      vertex 25.1225 -2.64048 0
      vertex 16.05 -3.5 0
    endloop
  endfacet
  facet normal -0 0 -1
    outer loop
      vertex 25.4 0 0
      vertex 15.5182 -1.68885 0
      vertex 25.4 1.81472e-06 0
    endloop
  endfacet
  facet normal 0 0 -1
    outer loop
      vertex 16.05 -3.5 0
      vertex 25.1225 -2.64048 0
      vertex 24.302 -5.16556 0
    endloop
  endfacet
  facet normal 0 0 -1
    outer loop
      vertex 13.309 15 0
      vertex 25.4 1.81472e-06 0
      vertex 15.5182 -1.68885 0
    endloop
  endfacet
  facet normal 0 0 -1
    outer loop
      vertex 16.05 -3.5 0
      vertex 24.302 -5.16556 0
      vertex 22.9745 -7.46487 0
    endloop
  endfacet
  facet normal 0 0 -1
    outer loop
      vertex 25.4 100 0
      vertex 16.05 103.5 0
      vertex 25.1225 102.64 0
    endloop
  endfacet
  facet normal 0 0 -1
    outer loop
      vertex 15.5182 -5.31115 0
      vertex 22.9745 -7.46487 0
      vertex 21.198 -9.43794 0
    endloop
  endfacet
  facet normal 0 0 -1
    outer loop
      vertex 25.1225 102.64 0
      vertex 16.05 103.5 0
      vertex 24.302 105.166 0
    endloop
  endfacet
  facet normal 0 0 -1
    outer loop
      vertex 15.5182 -5.31115 0
      vertex 21.198 -9.43794 0
      vertex 19.05 -10.9985 0
    endloop
  endfacet
  facet normal -0 0 -1
    outer loop
      vertex 24.302 105.166 0
      vertex 16.05 103.5 0
      vertex 22.9745 107.465 0
    endloop
  endfacet
  facet normal 0 0 -1
    outer loop
      vertex 14.0916 -6.54727 0
      vertex 19.05 -10.9985 0
      vertex 16.6245 -12.0784 0
    endloop
  endfacet
  facet normal 0 0 -1
    outer loop
      vertex 15.5182 105.311 0
      vertex 22.9745 107.465 0
      vertex 16.05 103.5 0
    endloop
  endfacet
  facet normal -0 0 -1
    outer loop
      vertex 22.9745 107.465 0
      vertex 15.5182 105.311 0
      vertex 21.198 109.438 0
    endloop
  endfacet
  facet normal 0 0 -1
    outer loop
      vertex 22.9745 -7.46487 0
      vertex 15.5182 -5.31115 0
      vertex 16.05 -3.5 0
    endloop
  endfacet
  facet normal 0 0 -1
    outer loop
      vertex 19.05 -10.9985 0
      vertex 14.0916 -6.54727 0
      vertex 15.5182 -5.31115 0
    endloop
  endfacet
  facet normal 0 0 -1
    outer loop
      vertex 14.0275 -12.6304 0
      vertex 14.0916 -6.54727 0
      vertex 16.6245 -12.0784 0
    endloop
  endfacet
  facet normal 0 0 -1
    outer loop
      vertex 14.0275 -12.6304 0
      vertex 12.2232 -6.8159 0
      vertex 14.0916 -6.54727 0
    endloop
  endfacet
  facet normal 0 0 -1
    outer loop
      vertex 11.3725 -12.6304 0
      vertex 12.2232 -6.8159 0
      vertex 14.0275 -12.6304 0
    endloop
  endfacet
  facet normal 0 0 -1
    outer loop
      vertex 8.77548 -12.0784 0
      vertex 12.2232 -6.8159 0
      vertex 11.3725 -12.6304 0
    endloop
  endfacet
  facet normal -0 0 -1
    outer loop
      vertex 12.2232 -6.8159 0
      vertex 8.77548 -12.0784 0
      vertex 10.5062 -6.03176 0
    endloop
  endfacet
  facet normal 0 0 -1
    outer loop
      vertex 1.09797 -5.16556 0
      vertex 9.4857 -2.5562 0
      vertex 9.4857 -4.4438 0
    endloop
  endfacet
  facet normal -0 0 -1
    outer loop
      vertex 12.2073 15.3579 0
      vertex 0 0 0
      vertex 12.2073 84.6421 0
    endloop
  endfacet
  facet normal 0 0 -1
    outer loop
      vertex 4.20204 -9.43794 0
      vertex 10.5062 -6.03176 0
      vertex 6.35 -10.9985 0
    endloop
  endfacet
  facet normal 0 0 -1
    outer loop
      vertex 6.35 -10.9985 0
      vertex 10.5062 -6.03176 0
      vertex 8.77548 -12.0784 0
    endloop
  endfacet
  facet normal -0 0 -1
    outer loop
      vertex 21.198 109.438 0
      vertex 15.5182 105.311 0
      vertex 19.05 110.999 0
    endloop
  endfacet
  facet normal 0 0 -1
    outer loop
      vertex 14.0916 106.547 0
      vertex 19.05 110.999 0
      vertex 15.5182 105.311 0
    endloop
  endfacet
  facet normal -0 0 -1
    outer loop
      vertex 19.05 110.999 0
      vertex 14.0916 106.547 0
      vertex 16.6245 112.078 0
    endloop
  endfacet
  facet normal 0 0 -1
    outer loop
      vertex 14.0916 106.547 0
      vertex 14.0275 112.63 0
      vertex 16.6245 112.078 0
    endloop
  endfacet
  facet normal 0 0 -1
    outer loop
      vertex 12.2232 106.816 0
      vertex 14.0275 112.63 0
      vertex 14.0916 106.547 0
    endloop
  endfacet
  facet normal 0 0 -1
    outer loop
      vertex 12.2232 106.816 0
      vertex 11.3725 112.63 0
      vertex 14.0275 112.63 0
    endloop
  endfacet
  facet normal 0 0 -1
    outer loop
      vertex 8.77548 112.078 0
      vertex 12.2232 106.816 0
      vertex 10.5062 106.032 0
    endloop
  endfacet
  facet normal 0 0 -1
    outer loop
      vertex 4.20204 109.438 0
      vertex 10.5062 106.032 0
      vertex 9.4857 104.444 0
    endloop
  endfacet
  facet normal 0 0 -1
    outer loop
      vertex 12.2232 106.816 0
      vertex 8.77548 112.078 0
      vertex 11.3725 112.63 0
    endloop
  endfacet
  facet normal 0 0 -1
    outer loop
      vertex 12.2073 84.6421 0
      vertex 1.90735e-07 100 0
      vertex 9.4857 102.556 0
    endloop
  endfacet
  facet normal -0 0 -1
    outer loop
      vertex 10.5062 -6.03176 0
      vertex 4.20204 -9.43794 0
      vertex 9.4857 -4.4438 0
    endloop
  endfacet
  facet normal 0 -0 -1
    outer loop
      vertex 0.277526 102.64 0
      vertex 9.4857 102.556 0
      vertex 1.90735e-07 100 0
    endloop
  endfacet
  facet normal 0 0 -1
    outer loop
      vertex 2.42548 -7.46487 0
      vertex 9.4857 -4.4438 0
      vertex 4.20204 -9.43794 0
    endloop
  endfacet
  facet normal 0 -0 -1
    outer loop
      vertex 1.09797 105.166 0
      vertex 9.4857 102.556 0
      vertex 0.277526 102.64 0
    endloop
  endfacet
  facet normal 0 0 -1
    outer loop
      vertex 1.09797 -5.16556 0
      vertex 9.4857 -4.4438 0
      vertex 2.42548 -7.46487 0
    endloop
  endfacet
  facet normal 0 0 -1
    outer loop
      vertex 10.5062 106.032 0
      vertex 6.35 110.999 0
      vertex 8.77548 112.078 0
    endloop
  endfacet
  facet normal 0 0 -1
    outer loop
      vertex 9.4857 -2.5562 0
      vertex 1.09797 -5.16556 0
      vertex 0.277526 -2.64048 0
    endloop
  endfacet
  facet normal 0 0 -1
    outer loop
      vertex 10.5062 106.032 0
      vertex 4.20204 109.438 0
      vertex 6.35 110.999 0
    endloop
  endfacet
  facet normal -0 0 -1
    outer loop
      vertex 9.4857 -2.5562 0
      vertex 0.277526 -2.64048 0
      vertex 1.90735e-07 0 0
    endloop
  endfacet
  facet normal 0 0 -1
    outer loop
      vertex 9.4857 104.444 0
      vertex 2.42548 107.465 0
      vertex 4.20204 109.438 0
    endloop
  endfacet
  facet normal 0 0 -1
    outer loop
      vertex 9.4857 104.444 0
      vertex 1.09797 105.166 0
      vertex 2.42548 107.465 0
    endloop
  endfacet
  facet normal 0 0 -1
    outer loop
      vertex 9.4857 102.556 0
      vertex 1.09797 105.166 0
      vertex 9.4857 104.444 0
    endloop
  endfacet
  facet normal 0 0 -1
    outer loop
      vertex 0 100 0
      vertex 12.2073 84.6421 0
      vertex 0 0 0
    endloop
  endfacet
  facet normal 0 0 -1
    outer loop
      vertex 12.2073 84.6421 0
      vertex 0 100 0
      vertex 1.90735e-07 100 0
    endloop
  endfacet
  facet normal 0 -0 -1
    outer loop
      vertex 14.0916 100.453 0
      vertex 25.4 100 0
      vertex 12.8882 85.5792 0
    endloop
  endfacet
  facet normal 0 0 -1
    outer loop
      vertex 25.4 100 0
      vertex 14.0916 100.453 0
      vertex 15.5182 101.689 0
    endloop
  endfacet
  facet normal 0 0 -1
    outer loop
      vertex 12.8882 85.5792 0
      vertex 12.2232 100.184 0
      vertex 14.0916 100.453 0
    endloop
  endfacet
  facet normal 0 0 -1
    outer loop
      vertex 12.2073 85.3579 0
      vertex 12.2232 100.184 0
      vertex 12.8882 85.5792 0
    endloop
  endfacet
  facet normal 0 0 -1
    outer loop
      vertex 0 0 0
      vertex 12.2073 14.6421 0
      vertex 1.90735e-07 0 0
    endloop
  endfacet
  facet normal 0 0 -1
    outer loop
      vertex 12.2073 85.3579 0
      vertex 10.5062 100.968 0
      vertex 12.2232 100.184 0
    endloop
  endfacet
  facet normal 0 0 -1
    outer loop
      vertex 12.2073 84.6421 0
      vertex 9.4857 102.556 0
      vertex 12.2073 85.3579 0
    endloop
  endfacet
  facet normal 0 0 -1
    outer loop
      vertex 12.2073 85.3579 0
      vertex 9.4857 102.556 0
      vertex 10.5062 100.968 0
    endloop
  endfacet
  facet normal -0.654861 0.75575 0
    outer loop
      vertex 15.5182 -5.31115 0
      vertex 14.0916 -6.54727 2.65
      vertex 15.5182 -5.31115 2.65
    endloop
  endfacet
  facet normal -0.654861 0.75575 0
    outer loop
      vertex 14.0916 -6.54727 2.65
      vertex 15.5182 -5.31115 0
      vertex 14.0916 -6.54727 0
    endloop
  endfacet
  facet normal 0.415415 0.909632 -0
    outer loop
      vertex 12.2232 -6.8159 0
      vertex 10.5062 -6.03176 2.65
      vertex 12.2232 -6.8159 2.65
    endloop
  endfacet
  facet normal 0.415415 0.909632 0
    outer loop
      vertex 10.5062 -6.03176 2.65
      vertex 12.2232 -6.8159 0
      vertex 10.5062 -6.03176 0
    endloop
  endfacet
  facet normal 0.841253 0.540641 0
    outer loop
      vertex 10.5062 -6.03176 2.65
      vertex 9.4857 -4.4438 0
      vertex 9.4857 -4.4438 2.65
    endloop
  endfacet
  facet normal 0.841253 0.540641 0
    outer loop
      vertex 9.4857 -4.4438 0
      vertex 10.5062 -6.03176 2.65
      vertex 10.5062 -6.03176 0
    endloop
  endfacet
  facet normal -0.991445 -0.130527 0
    outer loop
      vertex 20.2 -3.5 2.65
      vertex 19.9444 -1.55886 6.35
      vertex 19.9444 -1.55886 2.65
    endloop
  endfacet
  facet normal -0.991445 -0.130527 0
    outer loop
      vertex 19.9444 -1.55886 6.35
      vertex 20.2 -3.5 2.65
      vertex 20.2 -3.5 6.35
    endloop
  endfacet
  facet normal 0.991445 -0.130527 0
    outer loop
      vertex 5.2 -3.5 6.35
      vertex 5.45556 -1.55886 2.65
      vertex 5.45556 -1.55886 6.35
    endloop
  endfacet
  facet normal 0.991445 -0.130527 0
    outer loop
      vertex 5.45556 -1.55886 2.65
      vertex 5.2 -3.5 6.35
      vertex 5.2 -3.5 2.65
    endloop
  endfacet
  facet normal 0 0 1
    outer loop
      vertex 16.05 -3.5 2.65
      vertex 20.2 -3.5 2.65
      vertex 19.9444 -1.55886 2.65
    endloop
  endfacet
  facet normal 0 0 1
    outer loop
      vertex 15.5182 -1.68885 2.65
      vertex 19.9444 -1.55886 2.65
      vertex 19.1952 0.249999 2.65
    endloop
  endfacet
  facet normal 0 0 1
    outer loop
      vertex 20.2 -3.5 2.65
      vertex 16.05 -3.5 2.65
      vertex 19.9444 -5.44114 2.65
    endloop
  endfacet
  facet normal 0 0 1
    outer loop
      vertex 15.5182 -1.68885 2.65
      vertex 19.1952 0.249999 2.65
      vertex 18.2417 1.49264 2.65
    endloop
  endfacet
  facet normal -0 0 1
    outer loop
      vertex 15.5182 -5.31115 2.65
      vertex 19.9444 -5.44114 2.65
      vertex 16.05 -3.5 2.65
    endloop
  endfacet
  facet normal 0 0 1
    outer loop
      vertex 15.5182 -1.68885 2.65
      vertex 18.2417 1.49264 2.65
      vertex 18.0033 1.8033 2.65
    endloop
  endfacet
  facet normal 0 0 1
    outer loop
      vertex 14.0916 -0.452733 2.65
      vertex 18.0033 1.8033 2.65
      vertex 16.45 2.99519 2.65
    endloop
  endfacet
  facet normal 0 0 1
    outer loop
      vertex 19.9444 -5.44114 2.65
      vertex 15.5182 -5.31115 2.65
      vertex 19.1952 -7.25 2.65
    endloop
  endfacet
  facet normal 0 0 1
    outer loop
      vertex 19.1952 -7.25 2.65
      vertex 15.5182 -5.31115 2.65
      vertex 18.0033 -8.8033 2.65
    endloop
  endfacet
  facet normal 0 0 1
    outer loop
      vertex 19.9444 -1.55886 2.65
      vertex 15.5182 -1.68885 2.65
      vertex 16.05 -3.5 2.65
    endloop
  endfacet
  facet normal 0 0 1
    outer loop
      vertex 14.0916 -0.452733 2.65
      vertex 16.45 2.99519 2.65
      vertex 14.6411 3.74444 2.65
    endloop
  endfacet
  facet normal 0 0 1
    outer loop
      vertex 18.0033 1.8033 2.65
      vertex 14.0916 -0.452733 2.65
      vertex 15.5182 -1.68885 2.65
    endloop
  endfacet
  facet normal 0 0 1
    outer loop
      vertex 12.2232 -0.184098 2.65
      vertex 14.6411 3.74444 2.65
      vertex 12.7 4 2.65
    endloop
  endfacet
  facet normal 0 0 1
    outer loop
      vertex 14.6411 3.74444 2.65
      vertex 12.2232 -0.184098 2.65
      vertex 14.0916 -0.452733 2.65
    endloop
  endfacet
  facet normal -0 0 1
    outer loop
      vertex 10.7589 3.74444 2.65
      vertex 12.2232 -0.184098 2.65
      vertex 12.7 4 2.65
    endloop
  endfacet
  facet normal -0 0 1
    outer loop
      vertex 8.95 2.99519 2.65
      vertex 12.2232 -0.184098 2.65
      vertex 10.7589 3.74444 2.65
    endloop
  endfacet
  facet normal 0 0 1
    outer loop
      vertex 12.2232 -0.184098 2.65
      vertex 8.95 2.99519 2.65
      vertex 10.5062 -0.96824 2.65
    endloop
  endfacet
  facet normal -0 0 1
    outer loop
      vertex 6.20481 0.249999 2.65
      vertex 10.5062 -0.96824 2.65
      vertex 7.3967 1.8033 2.65
    endloop
  endfacet
  facet normal -0 0 1
    outer loop
      vertex 7.3967 1.8033 2.65
      vertex 10.5062 -0.96824 2.65
      vertex 8.95 2.99519 2.65
    endloop
  endfacet
  facet normal -0 0 1
    outer loop
      vertex 14.0916 -6.54727 2.65
      vertex 18.0033 -8.8033 2.65
      vertex 15.5182 -5.31115 2.65
    endloop
  endfacet
  facet normal 0 0 1
    outer loop
      vertex 18.0033 -8.8033 2.65
      vertex 14.0916 -6.54727 2.65
      vertex 16.45 -9.99519 2.65
    endloop
  endfacet
  facet normal 0 0 1
    outer loop
      vertex 16.45 -9.99519 2.65
      vertex 14.0916 -6.54727 2.65
      vertex 14.6411 -10.7444 2.65
    endloop
  endfacet
  facet normal -0 0 1
    outer loop
      vertex 12.2232 -6.8159 2.65
      vertex 14.6411 -10.7444 2.65
      vertex 14.0916 -6.54727 2.65
    endloop
  endfacet
  facet normal 0 0 1
    outer loop
      vertex 14.6411 -10.7444 2.65
      vertex 12.2232 -6.8159 2.65
      vertex 12.7 -11 2.65
    endloop
  endfacet
  facet normal 0 0 1
    outer loop
      vertex 12.2232 -6.8159 2.65
      vertex 10.7589 -10.7444 2.65
      vertex 12.7 -11 2.65
    endloop
  endfacet
  facet normal 0 0 1
    outer loop
      vertex 8.95 -9.99519 2.65
      vertex 12.2232 -6.8159 2.65
      vertex 10.5062 -6.03176 2.65
    endloop
  endfacet
  facet normal 0 0 1
    outer loop
      vertex 6.20481 -7.25 2.65
      vertex 10.5062 -6.03176 2.65
      vertex 9.4857 -4.4438 2.65
    endloop
  endfacet
  facet normal 0 0 1
    outer loop
      vertex 12.2232 -6.8159 2.65
      vertex 8.95 -9.99519 2.65
      vertex 10.7589 -10.7444 2.65
    endloop
  endfacet
  facet normal 0 0 1
    outer loop
      vertex 10.5062 -0.96824 2.65
      vertex 6.20481 0.249999 2.65
      vertex 9.4857 -2.5562 2.65
    endloop
  endfacet
  facet normal -0 0 1
    outer loop
      vertex 5.45556 -1.55886 2.65
      vertex 9.4857 -2.5562 2.65
      vertex 6.20481 0.249999 2.65
    endloop
  endfacet
  facet normal 0 0 1
    outer loop
      vertex 10.5062 -6.03176 2.65
      vertex 7.3967 -8.8033 2.65
      vertex 8.95 -9.99519 2.65
    endloop
  endfacet
  facet normal 0 0 1
    outer loop
      vertex 5.2 -3.5 2.65
      vertex 9.4857 -2.5562 2.65
      vertex 5.45556 -1.55886 2.65
    endloop
  endfacet
  facet normal 0 0 1
    outer loop
      vertex 10.5062 -6.03176 2.65
      vertex 6.20481 -7.25 2.65
      vertex 7.3967 -8.8033 2.65
    endloop
  endfacet
  facet normal 0 0 1
    outer loop
      vertex 9.4857 -2.5562 2.65
      vertex 5.2 -3.5 2.65
      vertex 9.4857 -4.4438 2.65
    endloop
  endfacet
  facet normal 0 0 1
    outer loop
      vertex 9.4857 -4.4438 2.65
      vertex 5.45556 -5.44114 2.65
      vertex 6.20481 -7.25 2.65
    endloop
  endfacet
  facet normal 0 0 1
    outer loop
      vertex 9.4857 -4.4438 2.65
      vertex 5.2 -3.5 2.65
      vertex 5.45556 -5.44114 2.65
    endloop
  endfacet
  facet normal -0.793353 -0.608761 0
    outer loop
      vertex 19.1952 0.249999 2.65
      vertex 18.2417 1.49264 6.35
      vertex 18.2417 1.49264 2.65
    endloop
  endfacet
  facet normal -0.793353 -0.608761 0
    outer loop
      vertex 18.2417 1.49264 6.35
      vertex 19.1952 0.249999 2.65
      vertex 19.1952 0.249999 6.35
    endloop
  endfacet
  facet normal -0.92388 -0.382683 0
    outer loop
      vertex 19.9444 -1.55886 2.65
      vertex 19.1952 0.249999 6.35
      vertex 19.1952 0.249999 2.65
    endloop
  endfacet
  facet normal -0.92388 -0.382683 0
    outer loop
      vertex 19.1952 0.249999 6.35
      vertex 19.9444 -1.55886 2.65
      vertex 19.9444 -1.55886 6.35
    endloop
  endfacet
  facet normal 0.608761 -0.793354 0
    outer loop
      vertex 7.3967 1.8033 2.65
      vertex 8.95 2.99519 6.35
      vertex 7.3967 1.8033 6.35
    endloop
  endfacet
  facet normal 0.608761 -0.793354 0
    outer loop
      vertex 8.95 2.99519 6.35
      vertex 7.3967 1.8033 2.65
      vertex 8.95 2.99519 2.65
    endloop
  endfacet
  facet normal 0.130527 -0.991445 0
    outer loop
      vertex 10.7589 3.74444 2.65
      vertex 12.7 4 6.35
      vertex 10.7589 3.74444 6.35
    endloop
  endfacet
  facet normal 0.130527 -0.991445 0
    outer loop
      vertex 12.7 4 6.35
      vertex 10.7589 3.74444 2.65
      vertex 12.7 4 2.65
    endloop
  endfacet
  facet normal 0.608761 0.793354 -0
    outer loop
      vertex 8.95 -9.99519 2.65
      vertex 7.3967 -8.8033 6.35
      vertex 8.95 -9.99519 6.35
    endloop
  endfacet
  facet normal 0.608761 0.793354 0
    outer loop
      vertex 7.3967 -8.8033 6.35
      vertex 8.95 -9.99519 2.65
      vertex 7.3967 -8.8033 2.65
    endloop
  endfacet
  facet normal 0.991445 0.130527 0
    outer loop
      vertex 5.45556 -5.44114 6.35
      vertex 5.2 -3.5 2.65
      vertex 5.2 -3.5 6.35
    endloop
  endfacet
  facet normal 0.991445 0.130527 0
    outer loop
      vertex 5.2 -3.5 2.65
      vertex 5.45556 -5.44114 6.35
      vertex 5.45556 -5.44114 2.65
    endloop
  endfacet
  facet normal 0.793354 -0.608761 0
    outer loop
      vertex 6.20481 0.249999 6.35
      vertex 7.3967 1.8033 2.65
      vertex 7.3967 1.8033 6.35
    endloop
  endfacet
  facet normal 0.793354 -0.608761 0
    outer loop
      vertex 7.3967 1.8033 2.65
      vertex 6.20481 0.249999 6.35
      vertex 6.20481 0.249999 2.65
    endloop
  endfacet
  facet normal 0.923879 -0.382684 0
    outer loop
      vertex 5.45556 -1.55886 6.35
      vertex 6.20481 0.249999 2.65
      vertex 6.20481 0.249999 6.35
    endloop
  endfacet
  facet normal 0.923879 -0.382684 0
    outer loop
      vertex 6.20481 0.249999 2.65
      vertex 5.45556 -1.55886 6.35
      vertex 5.45556 -1.55886 2.65
    endloop
  endfacet
  facet normal 0.382684 -0.923879 0
    outer loop
      vertex 8.95 2.99519 2.65
      vertex 10.7589 3.74444 6.35
      vertex 8.95 2.99519 6.35
    endloop
  endfacet
  facet normal 0.382684 -0.923879 0
    outer loop
      vertex 10.7589 3.74444 6.35
      vertex 8.95 2.99519 2.65
      vertex 10.7589 3.74444 2.65
    endloop
  endfacet
  facet normal -0.991445 0.130527 0
    outer loop
      vertex 19.9444 -5.44114 2.65
      vertex 20.2 -3.5 6.35
      vertex 20.2 -3.5 2.65
    endloop
  endfacet
  facet normal -0.991445 0.130527 0
    outer loop
      vertex 20.2 -3.5 6.35
      vertex 19.9444 -5.44114 2.65
      vertex 19.9444 -5.44114 6.35
    endloop
  endfacet
  facet normal -0.130527 0.991445 0
    outer loop
      vertex 14.6411 -10.7444 2.65
      vertex 12.7 -11 6.35
      vertex 14.6411 -10.7444 6.35
    endloop
  endfacet
  facet normal -0.130527 0.991445 0
    outer loop
      vertex 12.7 -11 6.35
      vertex 14.6411 -10.7444 2.65
      vertex 12.7 -11 2.65
    endloop
  endfacet
  facet normal -0.608761 0.793354 0
    outer loop
      vertex 18.0033 -8.8033 2.65
      vertex 16.45 -9.99519 6.35
      vertex 18.0033 -8.8033 6.35
    endloop
  endfacet
  facet normal -0.608761 0.793354 0
    outer loop
      vertex 16.45 -9.99519 6.35
      vertex 18.0033 -8.8033 2.65
      vertex 16.45 -9.99519 2.65
    endloop
  endfacet
  facet normal 0.382683 0.92388 -0
    outer loop
      vertex 10.7589 -10.7444 2.65
      vertex 8.95 -9.99519 6.35
      vertex 10.7589 -10.7444 6.35
    endloop
  endfacet
  facet normal 0.382683 0.92388 0
    outer loop
      vertex 8.95 -9.99519 6.35
      vertex 10.7589 -10.7444 2.65
      vertex 8.95 -9.99519 2.65
    endloop
  endfacet
  facet normal 0.923879 0.382684 0
    outer loop
      vertex 6.20481 -7.25 6.35
      vertex 5.45556 -5.44114 2.65
      vertex 5.45556 -5.44114 6.35
    endloop
  endfacet
  facet normal 0.923879 0.382684 0
    outer loop
      vertex 5.45556 -5.44114 2.65
      vertex 6.20481 -7.25 6.35
      vertex 6.20481 -7.25 2.65
    endloop
  endfacet
  facet normal -0.382683 0.92388 0
    outer loop
      vertex 16.45 -9.99519 2.65
      vertex 14.6411 -10.7444 6.35
      vertex 16.45 -9.99519 6.35
    endloop
  endfacet
  facet normal -0.382683 0.92388 0
    outer loop
      vertex 14.6411 -10.7444 6.35
      vertex 16.45 -9.99519 2.65
      vertex 14.6411 -10.7444 2.65
    endloop
  endfacet
  facet normal -0.92388 0.382683 0
    outer loop
      vertex 19.1952 -7.25 2.65
      vertex 19.9444 -5.44114 6.35
      vertex 19.9444 -5.44114 2.65
    endloop
  endfacet
  facet normal -0.92388 0.382683 0
    outer loop
      vertex 19.9444 -5.44114 6.35
      vertex 19.1952 -7.25 2.65
      vertex 19.1952 -7.25 6.35
    endloop
  endfacet
  facet normal -0.793354 0.608761 0
    outer loop
      vertex 18.0033 -8.8033 2.65
      vertex 19.1952 -7.25 6.35
      vertex 19.1952 -7.25 2.65
    endloop
  endfacet
  facet normal -0.793354 0.608761 0
    outer loop
      vertex 19.1952 -7.25 6.35
      vertex 18.0033 -8.8033 2.65
      vertex 18.0033 -8.8033 6.35
    endloop
  endfacet
  facet normal 0.130527 0.991445 -0
    outer loop
      vertex 12.7 -11 2.65
      vertex 10.7589 -10.7444 6.35
      vertex 12.7 -11 6.35
    endloop
  endfacet
  facet normal 0.130527 0.991445 0
    outer loop
      vertex 10.7589 -10.7444 6.35
      vertex 12.7 -11 2.65
      vertex 10.7589 -10.7444 2.65
    endloop
  endfacet
  facet normal 0.793354 0.608761 0
    outer loop
      vertex 7.3967 -8.8033 6.35
      vertex 6.20481 -7.25 2.65
      vertex 6.20481 -7.25 6.35
    endloop
  endfacet
  facet normal 0.793354 0.608761 0
    outer loop
      vertex 6.20481 -7.25 2.65
      vertex 7.3967 -8.8033 6.35
      vertex 7.3967 -8.8033 2.65
    endloop
  endfacet
  facet normal 0.994522 -0.104528 0
    outer loop
      vertex 25.1225 -2.64048 6.35
      vertex 25.4 0 0
      vertex 25.4 0 6.35
    endloop
  endfacet
  facet normal 0.994522 -0.104528 0
    outer loop
      vertex 25.4 0 0
      vertex 25.1225 -2.64048 6.35
      vertex 25.1225 -2.64048 0
    endloop
  endfacet
  facet normal 1 -0 0
    outer loop
      vertex 25.4 0 6.35
      vertex 25.4 1.81472e-06 0
      vertex 25.4 1.81472e-06 6.35
    endloop
  endfacet
  facet normal 1 0 0
    outer loop
      vertex 25.4 1.81472e-06 0
      vertex 25.4 0 6.35
      vertex 25.4 0 0
    endloop
  endfacet
  facet normal 0.951056 -0.309017 0
    outer loop
      vertex 24.302 -5.16556 6.35
      vertex 25.1225 -2.64048 0
      vertex 25.1225 -2.64048 6.35
    endloop
  endfacet
  facet normal 0.951056 -0.309017 0
    outer loop
      vertex 25.1225 -2.64048 0
      vertex 24.302 -5.16556 6.35
      vertex 24.302 -5.16556 0
    endloop
  endfacet
  facet normal -0.587785 -0.809017 0
    outer loop
      vertex 4.20204 -9.43794 0
      vertex 6.35 -10.9985 6.35
      vertex 4.20204 -9.43794 6.35
    endloop
  endfacet
  facet normal -0.587785 -0.809017 -0
    outer loop
      vertex 6.35 -10.9985 6.35
      vertex 4.20204 -9.43794 0
      vertex 6.35 -10.9985 0
    endloop
  endfacet
  facet normal -0.866025 -0.5 0
    outer loop
      vertex 2.42548 -7.46487 0
      vertex 1.09797 -5.16556 6.35
      vertex 1.09797 -5.16556 0
    endloop
  endfacet
  facet normal -0.866025 -0.5 0
    outer loop
      vertex 1.09797 -5.16556 6.35
      vertex 2.42548 -7.46487 0
      vertex 2.42548 -7.46487 6.35
    endloop
  endfacet
  facet normal 0.587785 -0.809017 0
    outer loop
      vertex 19.05 -10.9985 0
      vertex 21.198 -9.43794 6.35
      vertex 19.05 -10.9985 6.35
    endloop
  endfacet
  facet normal 0.587785 -0.809017 0
    outer loop
      vertex 21.198 -9.43794 6.35
      vertex 19.05 -10.9985 0
      vertex 21.198 -9.43794 0
    endloop
  endfacet
  facet normal -0 0 1
    outer loop
      vertex 12.8882 84.4208 6.35
      vertex 13.309 15 6.35
      vertex 13.309 85 6.35
    endloop
  endfacet
  facet normal 0 0 1
    outer loop
      vertex 12.8882 84.4208 6.35
      vertex 12.8882 15.5792 6.35
      vertex 13.309 15 6.35
    endloop
  endfacet
  facet normal 0 0 1
    outer loop
      vertex 12.2073 84.6421 6.35
      vertex 12.8882 15.5792 6.35
      vertex 12.8882 84.4208 6.35
    endloop
  endfacet
  facet normal 0 0 1
    outer loop
      vertex 12.8882 15.5792 6.35
      vertex 12.2073 84.6421 6.35
      vertex 12.2073 15.3579 6.35
    endloop
  endfacet
  facet normal 0 0 1
    outer loop
      vertex 18.0033 98.1967 6.35
      vertex 25.4 100 6.35
      vertex 19.1952 99.75 6.35
    endloop
  endfacet
  facet normal 0 0 1
    outer loop
      vertex 25.4 1.81472e-06 6.35
      vertex 19.9444 -1.55886 6.35
      vertex 20.2 -3.5 6.35
    endloop
  endfacet
  facet normal 0 0 1
    outer loop
      vertex 25.4 100 6.35
      vertex 13.309 85 6.35
      vertex 25.4 1.81472e-06 6.35
    endloop
  endfacet
  facet normal 0 0 1
    outer loop
      vertex 25.4 1.81472e-06 6.35
      vertex 19.1952 0.249999 6.35
      vertex 19.9444 -1.55886 6.35
    endloop
  endfacet
  facet normal -0 -0 1
    outer loop
      vertex 18.0033 1.8033 6.35
      vertex 25.4 1.81472e-06 6.35
      vertex 13.309 15 6.35
    endloop
  endfacet
  facet normal 0 0 1
    outer loop
      vertex 25.4 100 6.35
      vertex 18.0033 98.1967 6.35
      vertex 13.309 85 6.35
    endloop
  endfacet
  facet normal 0 0 1
    outer loop
      vertex 25.4 1.81472e-06 6.35
      vertex 13.309 85 6.35
      vertex 13.309 15 6.35
    endloop
  endfacet
  facet normal 0 0 1
    outer loop
      vertex 13.309 85 6.35
      vertex 18.0033 98.1967 6.35
      vertex 16.45 97.0048 6.35
    endloop
  endfacet
  facet normal 0 0 1
    outer loop
      vertex 25.4 1.81472e-06 6.35
      vertex 18.2417 1.49264 6.35
      vertex 19.1952 0.249999 6.35
    endloop
  endfacet
  facet normal 0 0 1
    outer loop
      vertex 12.8882 85.5792 6.35
      vertex 16.45 97.0048 6.35
      vertex 14.6411 96.2556 6.35
    endloop
  endfacet
  facet normal 0 0 1
    outer loop
      vertex 25.4 1.81472e-06 6.35
      vertex 18.0033 1.8033 6.35
      vertex 18.2417 1.49264 6.35
    endloop
  endfacet
  facet normal 0 0 1
    outer loop
      vertex 18.0033 1.8033 6.35
      vertex 13.309 15 6.35
      vertex 16.45 2.99519 6.35
    endloop
  endfacet
  facet normal 0 0 1
    outer loop
      vertex 16.45 97.0048 6.35
      vertex 12.8882 85.5792 6.35
      vertex 13.309 85 6.35
    endloop
  endfacet
  facet normal -0 0 1
    outer loop
      vertex 12.7511 96.0067 6.35
      vertex 12.8882 85.5792 6.35
      vertex 14.6411 96.2556 6.35
    endloop
  endfacet
  facet normal -0 0 1
    outer loop
      vertex 12.7 96 6.35
      vertex 12.8882 85.5792 6.35
      vertex 12.7511 96.0067 6.35
    endloop
  endfacet
  facet normal 0 0 1
    outer loop
      vertex 10.7589 96.2556 6.35
      vertex 12.8882 85.5792 6.35
      vertex 12.7 96 6.35
    endloop
  endfacet
  facet normal 0 0 1
    outer loop
      vertex 0 100 6.35
      vertex 12.2073 84.6421 6.35
      vertex 12.2073 85.3579 6.35
    endloop
  endfacet
  facet normal -0 0 1
    outer loop
      vertex 0 100 6.35
      vertex 12.2073 85.3579 6.35
      vertex 1.90735e-07 100 6.35
    endloop
  endfacet
  facet normal 0 0 1
    outer loop
      vertex 8.95 97.0048 6.35
      vertex 12.2073 85.3579 6.35
      vertex 10.7589 96.2556 6.35
    endloop
  endfacet
  facet normal 0 0 1
    outer loop
      vertex 12.8882 85.5792 6.35
      vertex 10.7589 96.2556 6.35
      vertex 12.2073 85.3579 6.35
    endloop
  endfacet
  facet normal 0 0 1
    outer loop
      vertex 25.1225 102.64 6.35
      vertex 19.9444 101.559 6.35
      vertex 25.4 100 6.35
    endloop
  endfacet
  facet normal 0 0 1
    outer loop
      vertex 19.9444 101.559 6.35
      vertex 25.1225 102.64 6.35
      vertex 20.2 103.5 6.35
    endloop
  endfacet
  facet normal 0 0 1
    outer loop
      vertex 19.1952 99.75 6.35
      vertex 25.4 100 6.35
      vertex 19.9444 101.559 6.35
    endloop
  endfacet
  facet normal -0 0 1
    outer loop
      vertex 20.2 103.5 6.35
      vertex 25.1225 102.64 6.35
      vertex 24.302 105.166 6.35
    endloop
  endfacet
  facet normal 0 0 1
    outer loop
      vertex 25.4 1.81472e-06 6.35
      vertex 20.2 -3.5 6.35
      vertex 25.4 0 6.35
    endloop
  endfacet
  facet normal -0 0 1
    outer loop
      vertex 19.9444 105.441 6.35
      vertex 24.302 105.166 6.35
      vertex 22.9745 107.465 6.35
    endloop
  endfacet
  facet normal 0 0 1
    outer loop
      vertex 25.4 0 6.35
      vertex 20.2 -3.5 6.35
      vertex 25.1225 -2.64048 6.35
    endloop
  endfacet
  facet normal 0 0 1
    outer loop
      vertex 19.1952 107.25 6.35
      vertex 22.9745 107.465 6.35
      vertex 21.198 109.438 6.35
    endloop
  endfacet
  facet normal 0 0 1
    outer loop
      vertex 25.1225 -2.64048 6.35
      vertex 20.2 -3.5 6.35
      vertex 24.302 -5.16556 6.35
    endloop
  endfacet
  facet normal 0 0 1
    outer loop
      vertex 19.9444 -5.44114 6.35
      vertex 24.302 -5.16556 6.35
      vertex 20.2 -3.5 6.35
    endloop
  endfacet
  facet normal 0 0 1
    outer loop
      vertex 24.302 105.166 6.35
      vertex 19.9444 105.441 6.35
      vertex 20.2 103.5 6.35
    endloop
  endfacet
  facet normal 0 0 1
    outer loop
      vertex 22.9745 107.465 6.35
      vertex 19.1952 107.25 6.35
      vertex 19.9444 105.441 6.35
    endloop
  endfacet
  facet normal 0 0 1
    outer loop
      vertex 18.0033 108.803 6.35
      vertex 21.198 109.438 6.35
      vertex 19.05 110.999 6.35
    endloop
  endfacet
  facet normal 0 0 1
    outer loop
      vertex 21.198 109.438 6.35
      vertex 18.0033 108.803 6.35
      vertex 19.1952 107.25 6.35
    endloop
  endfacet
  facet normal 0 0 1
    outer loop
      vertex 16.45 109.995 6.35
      vertex 19.05 110.999 6.35
      vertex 16.6245 112.078 6.35
    endloop
  endfacet
  facet normal 0 0 1
    outer loop
      vertex 19.05 110.999 6.35
      vertex 16.45 109.995 6.35
      vertex 18.0033 108.803 6.35
    endloop
  endfacet
  facet normal 0 0 1
    outer loop
      vertex 16.6245 112.078 6.35
      vertex 14.6411 110.744 6.35
      vertex 16.45 109.995 6.35
    endloop
  endfacet
  facet normal 0 0 1
    outer loop
      vertex 14.0275 112.63 6.35
      vertex 14.6411 110.744 6.35
      vertex 16.6245 112.078 6.35
    endloop
  endfacet
  facet normal 0 0 1
    outer loop
      vertex 14.0275 112.63 6.35
      vertex 12.7 111 6.35
      vertex 14.6411 110.744 6.35
    endloop
  endfacet
  facet normal -0 0 1
    outer loop
      vertex 11.3725 112.63 6.35
      vertex 12.7 111 6.35
      vertex 14.0275 112.63 6.35
    endloop
  endfacet
  facet normal 0 0 1
    outer loop
      vertex 11.3725 112.63 6.35
      vertex 10.7589 110.744 6.35
      vertex 12.7 111 6.35
    endloop
  endfacet
  facet normal -0 0 1
    outer loop
      vertex 8.77548 112.078 6.35
      vertex 10.7589 110.744 6.35
      vertex 11.3725 112.63 6.35
    endloop
  endfacet
  facet normal 0 0 1
    outer loop
      vertex 10.7589 110.744 6.35
      vertex 8.77548 112.078 6.35
      vertex 8.95 109.995 6.35
    endloop
  endfacet
  facet normal -0 0 1
    outer loop
      vertex 6.35 110.999 6.35
      vertex 8.95 109.995 6.35
      vertex 8.77548 112.078 6.35
    endloop
  endfacet
  facet normal 0 0 1
    outer loop
      vertex 8.95 109.995 6.35
      vertex 6.35 110.999 6.35
      vertex 7.3967 108.803 6.35
    endloop
  endfacet
  facet normal -0 0 1
    outer loop
      vertex 4.20204 109.438 6.35
      vertex 7.3967 108.803 6.35
      vertex 6.35 110.999 6.35
    endloop
  endfacet
  facet normal 0 0 1
    outer loop
      vertex 7.3967 108.803 6.35
      vertex 4.20204 109.438 6.35
      vertex 6.20481 107.25 6.35
    endloop
  endfacet
  facet normal 0 0 1
    outer loop
      vertex 7.3967 1.8033 6.35
      vertex 1.90735e-07 0 6.35
      vertex 6.20481 0.249999 6.35
    endloop
  endfacet
  facet normal 0 0 1
    outer loop
      vertex 1.90735e-07 100 6.35
      vertex 5.45556 105.441 6.35
      vertex 4.20204 109.438 6.35
    endloop
  endfacet
  facet normal 0 0 1
    outer loop
      vertex 6.20481 107.25 6.35
      vertex 4.20204 109.438 6.35
      vertex 5.45556 105.441 6.35
    endloop
  endfacet
  facet normal 0 0 1
    outer loop
      vertex 24.302 -5.16556 6.35
      vertex 19.9444 -5.44114 6.35
      vertex 22.9745 -7.46487 6.35
    endloop
  endfacet
  facet normal -0 0 1
    outer loop
      vertex 19.1952 -7.25 6.35
      vertex 22.9745 -7.46487 6.35
      vertex 19.9444 -5.44114 6.35
    endloop
  endfacet
  facet normal 0 0 1
    outer loop
      vertex 22.9745 -7.46487 6.35
      vertex 19.1952 -7.25 6.35
      vertex 21.198 -9.43794 6.35
    endloop
  endfacet
  facet normal -0 0 1
    outer loop
      vertex 18.0033 -8.8033 6.35
      vertex 21.198 -9.43794 6.35
      vertex 19.1952 -7.25 6.35
    endloop
  endfacet
  facet normal 0 0 1
    outer loop
      vertex 21.198 -9.43794 6.35
      vertex 18.0033 -8.8033 6.35
      vertex 19.05 -10.9985 6.35
    endloop
  endfacet
  facet normal -0 0 1
    outer loop
      vertex 16.45 -9.99519 6.35
      vertex 19.05 -10.9985 6.35
      vertex 18.0033 -8.8033 6.35
    endloop
  endfacet
  facet normal 0 0 1
    outer loop
      vertex 19.05 -10.9985 6.35
      vertex 16.45 -9.99519 6.35
      vertex 16.6245 -12.0784 6.35
    endloop
  endfacet
  facet normal -0 0 1
    outer loop
      vertex 14.6411 -10.7444 6.35
      vertex 16.6245 -12.0784 6.35
      vertex 16.45 -9.99519 6.35
    endloop
  endfacet
  facet normal 0 0 1
    outer loop
      vertex 14.6411 -10.7444 6.35
      vertex 14.0275 -12.6304 6.35
      vertex 16.6245 -12.0784 6.35
    endloop
  endfacet
  facet normal -0 0 1
    outer loop
      vertex 12.7 -11 6.35
      vertex 14.0275 -12.6304 6.35
      vertex 14.6411 -10.7444 6.35
    endloop
  endfacet
  facet normal 0 0 1
    outer loop
      vertex 12.7 -11 6.35
      vertex 11.3725 -12.6304 6.35
      vertex 14.0275 -12.6304 6.35
    endloop
  endfacet
  facet normal 0 0 1
    outer loop
      vertex 10.7589 -10.7444 6.35
      vertex 11.3725 -12.6304 6.35
      vertex 12.7 -11 6.35
    endloop
  endfacet
  facet normal 0 0 1
    outer loop
      vertex 8.77548 -12.0784 6.35
      vertex 10.7589 -10.7444 6.35
      vertex 8.95 -9.99519 6.35
    endloop
  endfacet
  facet normal 0 0 1
    outer loop
      vertex 10.7589 -10.7444 6.35
      vertex 8.77548 -12.0784 6.35
      vertex 11.3725 -12.6304 6.35
    endloop
  endfacet
  facet normal 0 0 1
    outer loop
      vertex 6.35 -10.9985 6.35
      vertex 8.95 -9.99519 6.35
      vertex 7.3967 -8.8033 6.35
    endloop
  endfacet
  facet normal 0 0 1
    outer loop
      vertex 8.95 -9.99519 6.35
      vertex 6.35 -10.9985 6.35
      vertex 8.77548 -12.0784 6.35
    endloop
  endfacet
  facet normal 0 0 1
    outer loop
      vertex 4.20204 -9.43794 6.35
      vertex 7.3967 -8.8033 6.35
      vertex 6.20481 -7.25 6.35
    endloop
  endfacet
  facet normal 0 0 1
    outer loop
      vertex 2.42548 -7.46487 6.35
      vertex 6.20481 -7.25 6.35
      vertex 5.45556 -5.44114 6.35
    endloop
  endfacet
  facet normal 0 0 1
    outer loop
      vertex 7.3967 -8.8033 6.35
      vertex 4.20204 -9.43794 6.35
      vertex 6.35 -10.9985 6.35
    endloop
  endfacet
  facet normal -0 0 1
    outer loop
      vertex 1.09797 -5.16556 6.35
      vertex 5.45556 -5.44114 6.35
      vertex 5.2 -3.5 6.35
    endloop
  endfacet
  facet normal 0 0 1
    outer loop
      vertex 6.20481 0.249999 6.35
      vertex 1.90735e-07 0 6.35
      vertex 5.45556 -1.55886 6.35
    endloop
  endfacet
  facet normal 0 0 1
    outer loop
      vertex 1.90735e-07 100 6.35
      vertex 4.20204 109.438 6.35
      vertex 2.42548 107.465 6.35
    endloop
  endfacet
  facet normal 0 -0 1
    outer loop
      vertex 0.277526 -2.64048 6.35
      vertex 5.45556 -1.55886 6.35
      vertex 1.90735e-07 0 6.35
    endloop
  endfacet
  facet normal 0 0 1
    outer loop
      vertex 1.90735e-07 100 6.35
      vertex 2.42548 107.465 6.35
      vertex 1.09797 105.166 6.35
    endloop
  endfacet
  facet normal 0 0 1
    outer loop
      vertex 5.45556 -1.55886 6.35
      vertex 0.277526 -2.64048 6.35
      vertex 5.2 -3.5 6.35
    endloop
  endfacet
  facet normal 0 0 1
    outer loop
      vertex 1.90735e-07 100 6.35
      vertex 1.09797 105.166 6.35
      vertex 0.277526 102.64 6.35
    endloop
  endfacet
  facet normal 0 0 1
    outer loop
      vertex 6.20481 -7.25 6.35
      vertex 2.42548 -7.46487 6.35
      vertex 4.20204 -9.43794 6.35
    endloop
  endfacet
  facet normal 0 0 1
    outer loop
      vertex 5.45556 -5.44114 6.35
      vertex 1.09797 -5.16556 6.35
      vertex 2.42548 -7.46487 6.35
    endloop
  endfacet
  facet normal 0 0 1
    outer loop
      vertex 5.2 -3.5 6.35
      vertex 0.277526 -2.64048 6.35
      vertex 1.09797 -5.16556 6.35
    endloop
  endfacet
  facet normal 0 0 1
    outer loop
      vertex 0 0 6.35
      vertex 12.2073 15.3579 6.35
      vertex 0 100 6.35
    endloop
  endfacet
  facet normal 0 0 1
    outer loop
      vertex 12.2073 15.3579 6.35
      vertex 0 0 6.35
      vertex 1.90735e-07 0 6.35
    endloop
  endfacet
  facet normal -0 0 1
    outer loop
      vertex 12.8882 14.4208 6.35
      vertex 16.45 2.99519 6.35
      vertex 13.309 15 6.35
    endloop
  endfacet
  facet normal 0 0 1
    outer loop
      vertex 16.45 2.99519 6.35
      vertex 12.8882 14.4208 6.35
      vertex 14.6411 3.74444 6.35
    endloop
  endfacet
  facet normal 0 0 1
    outer loop
      vertex 12.8882 14.4208 6.35
      vertex 12.7 4 6.35
      vertex 14.6411 3.74444 6.35
    endloop
  endfacet
  facet normal 0 0 1
    outer loop
      vertex 10.7589 3.74444 6.35
      vertex 12.8882 14.4208 6.35
      vertex 12.2073 14.6421 6.35
    endloop
  endfacet
  facet normal 0 0 1
    outer loop
      vertex 12.8882 14.4208 6.35
      vertex 10.7589 3.74444 6.35
      vertex 12.7 4 6.35
    endloop
  endfacet
  facet normal 0 0 1
    outer loop
      vertex 1.90735e-07 100 6.35
      vertex 12.2073 85.3579 6.35
      vertex 8.95 97.0048 6.35
    endloop
  endfacet
  facet normal 0 0 1
    outer loop
      vertex 12.2073 14.6421 6.35
      vertex 8.95 2.99519 6.35
      vertex 10.7589 3.74444 6.35
    endloop
  endfacet
  facet normal 0 0 1
    outer loop
      vertex 1.90735e-07 100 6.35
      vertex 8.95 97.0048 6.35
      vertex 7.3967 98.1967 6.35
    endloop
  endfacet
  facet normal 0 0 1
    outer loop
      vertex 1.90735e-07 100 6.35
      vertex 7.3967 98.1967 6.35
      vertex 6.20481 99.75 6.35
    endloop
  endfacet
  facet normal 0 0 1
    outer loop
      vertex 12.2073 14.6421 6.35
      vertex 7.3967 1.8033 6.35
      vertex 8.95 2.99519 6.35
    endloop
  endfacet
  facet normal 0 0 1
    outer loop
      vertex 12.2073 84.6421 6.35
      vertex 0 100 6.35
      vertex 12.2073 15.3579 6.35
    endloop
  endfacet
  facet normal 0 0 1
    outer loop
      vertex 1.90735e-07 0 6.35
      vertex 7.3967 1.8033 6.35
      vertex 12.2073 14.6421 6.35
    endloop
  endfacet
  facet normal -0 0 1
    outer loop
      vertex 1.90735e-07 100 6.35
      vertex 6.20481 99.75 6.35
      vertex 5.45556 101.559 6.35
    endloop
  endfacet
  facet normal 0 0 1
    outer loop
      vertex 12.2073 15.3579 6.35
      vertex 1.90735e-07 0 6.35
      vertex 12.2073 14.6421 6.35
    endloop
  endfacet
  facet normal 0 0 1
    outer loop
      vertex 5.45556 105.441 6.35
      vertex 1.90735e-07 100 6.35
      vertex 5.2 103.5 6.35
    endloop
  endfacet
  facet normal 0 0 1
    outer loop
      vertex 5.2 103.5 6.35
      vertex 1.90735e-07 100 6.35
      vertex 5.45556 101.559 6.35
    endloop
  endfacet
  facet normal 0.866026 -0.5 0
    outer loop
      vertex 22.9745 -7.46487 6.35
      vertex 24.302 -5.16556 0
      vertex 24.302 -5.16556 6.35
    endloop
  endfacet
  facet normal 0.866026 -0.5 0
    outer loop
      vertex 24.302 -5.16556 0
      vertex 22.9745 -7.46487 6.35
      vertex 22.9745 -7.46487 0
    endloop
  endfacet
  facet normal -0.994522 -0.104529 0
    outer loop
      vertex 0.277526 -2.64048 0
      vertex 1.90735e-07 0 6.35
      vertex 1.90735e-07 0 0
    endloop
  endfacet
  facet normal -0.994522 -0.104529 0
    outer loop
      vertex 1.90735e-07 0 6.35
      vertex 0.277526 -2.64048 0
      vertex 0.277526 -2.64048 6.35
    endloop
  endfacet
  facet normal -0.743145 -0.669131 0
    outer loop
      vertex 4.20204 -9.43794 0
      vertex 2.42548 -7.46487 6.35
      vertex 2.42548 -7.46487 0
    endloop
  endfacet
  facet normal -0.743145 -0.669131 0
    outer loop
      vertex 2.42548 -7.46487 6.35
      vertex 4.20204 -9.43794 0
      vertex 4.20204 -9.43794 6.35
    endloop
  endfacet
  facet normal 0.207912 -0.978148 0
    outer loop
      vertex 14.0275 -12.6304 0
      vertex 16.6245 -12.0784 6.35
      vertex 14.0275 -12.6304 6.35
    endloop
  endfacet
  facet normal 0.207912 -0.978148 0
    outer loop
      vertex 16.6245 -12.0784 6.35
      vertex 14.0275 -12.6304 0
      vertex 16.6245 -12.0784 0
    endloop
  endfacet
  facet normal 0.406737 -0.913545 0
    outer loop
      vertex 16.6245 -12.0784 0
      vertex 19.05 -10.9985 6.35
      vertex 16.6245 -12.0784 6.35
    endloop
  endfacet
  facet normal 0.406737 -0.913545 0
    outer loop
      vertex 19.05 -10.9985 6.35
      vertex 16.6245 -12.0784 0
      vertex 19.05 -10.9985 0
    endloop
  endfacet
  facet normal 0 -1 0
    outer loop
      vertex 11.3725 -12.6304 0
      vertex 14.0275 -12.6304 6.35
      vertex 11.3725 -12.6304 6.35
    endloop
  endfacet
  facet normal 0 -1 -0
    outer loop
      vertex 14.0275 -12.6304 6.35
      vertex 11.3725 -12.6304 0
      vertex 14.0275 -12.6304 0
    endloop
  endfacet
  facet normal -0.207912 -0.978148 0
    outer loop
      vertex 8.77548 -12.0784 0
      vertex 11.3725 -12.6304 6.35
      vertex 8.77548 -12.0784 6.35
    endloop
  endfacet
  facet normal -0.207912 -0.978148 -0
    outer loop
      vertex 11.3725 -12.6304 6.35
      vertex 8.77548 -12.0784 0
      vertex 11.3725 -12.6304 0
    endloop
  endfacet
  facet normal -0.951057 -0.309017 0
    outer loop
      vertex 1.09797 -5.16556 0
      vertex 0.277526 -2.64048 6.35
      vertex 0.277526 -2.64048 0
    endloop
  endfacet
  facet normal -0.951057 -0.309017 0
    outer loop
      vertex 0.277526 -2.64048 6.35
      vertex 1.09797 -5.16556 0
      vertex 1.09797 -5.16556 6.35
    endloop
  endfacet
  facet normal 0.743145 -0.669131 0
    outer loop
      vertex 21.198 -9.43794 6.35
      vertex 22.9745 -7.46487 0
      vertex 22.9745 -7.46487 6.35
    endloop
  endfacet
  facet normal 0.743145 -0.669131 0
    outer loop
      vertex 22.9745 -7.46487 0
      vertex 21.198 -9.43794 6.35
      vertex 21.198 -9.43794 0
    endloop
  endfacet
  facet normal -0.406737 -0.913545 0
    outer loop
      vertex 6.35 -10.9985 0
      vertex 8.77548 -12.0784 6.35
      vertex 6.35 -10.9985 6.35
    endloop
  endfacet
  facet normal -0.406737 -0.913545 -0
    outer loop
      vertex 8.77548 -12.0784 6.35
      vertex 6.35 -10.9985 0
      vertex 8.77548 -12.0784 0
    endloop
  endfacet
  facet normal -0.959493 -0.281732 0
    outer loop
      vertex 16.05 103.5 0
      vertex 15.5182 105.311 2.65
      vertex 15.5182 105.311 0
    endloop
  endfacet
  facet normal -0.959493 -0.281732 0
    outer loop
      vertex 15.5182 105.311 2.65
      vertex 16.05 103.5 0
      vertex 16.05 103.5 2.65
    endloop
  endfacet
  facet normal 1 -0 0
    outer loop
      vertex 9.4857 102.556 2.65
      vertex 9.4857 104.444 0
      vertex 9.4857 104.444 2.65
    endloop
  endfacet
  facet normal 1 0 0
    outer loop
      vertex 9.4857 104.444 0
      vertex 9.4857 102.556 2.65
      vertex 9.4857 102.556 0
    endloop
  endfacet
  facet normal -0.142317 0.989821 0
    outer loop
      vertex 14.0916 100.453 0
      vertex 12.2232 100.184 2.65
      vertex 14.0916 100.453 2.65
    endloop
  endfacet
  facet normal -0.142317 0.989821 0
    outer loop
      vertex 12.2232 100.184 2.65
      vertex 14.0916 100.453 0
      vertex 12.2232 100.184 0
    endloop
  endfacet
  facet normal -0.142317 -0.989821 0
    outer loop
      vertex 12.2232 106.816 0
      vertex 14.0916 106.547 2.65
      vertex 12.2232 106.816 2.65
    endloop
  endfacet
  facet normal -0.142317 -0.989821 -0
    outer loop
      vertex 14.0916 106.547 2.65
      vertex 12.2232 106.816 0
      vertex 14.0916 106.547 0
    endloop
  endfacet
  facet normal -0.654859 -0.755751 0
    outer loop
      vertex 14.0916 106.547 0
      vertex 15.5182 105.311 2.65
      vertex 14.0916 106.547 2.65
    endloop
  endfacet
  facet normal -0.654859 -0.755751 -0
    outer loop
      vertex 15.5182 105.311 2.65
      vertex 14.0916 106.547 0
      vertex 15.5182 105.311 0
    endloop
  endfacet
  facet normal 0.841254 -0.54064 0
    outer loop
      vertex 9.4857 104.444 2.65
      vertex 10.5062 106.032 0
      vertex 10.5062 106.032 2.65
    endloop
  endfacet
  facet normal 0.841254 -0.54064 0
    outer loop
      vertex 10.5062 106.032 0
      vertex 9.4857 104.444 2.65
      vertex 9.4857 104.444 0
    endloop
  endfacet
  facet normal 0.415415 -0.909632 0
    outer loop
      vertex 10.5062 106.032 0
      vertex 12.2232 106.816 2.65
      vertex 10.5062 106.032 2.65
    endloop
  endfacet
  facet normal 0.415415 -0.909632 0
    outer loop
      vertex 12.2232 106.816 2.65
      vertex 10.5062 106.032 0
      vertex 12.2232 106.816 0
    endloop
  endfacet
  facet normal -0.959493 0.281732 0
    outer loop
      vertex 15.5182 101.689 0
      vertex 16.05 103.5 2.65
      vertex 16.05 103.5 0
    endloop
  endfacet
  facet normal -0.959493 0.281732 0
    outer loop
      vertex 16.05 103.5 2.65
      vertex 15.5182 101.689 0
      vertex 15.5182 101.689 2.65
    endloop
  endfacet
  facet normal -0.654859 0.755751 0
    outer loop
      vertex 15.5182 101.689 0
      vertex 14.0916 100.453 2.65
      vertex 15.5182 101.689 2.65
    endloop
  endfacet
  facet normal -0.654859 0.755751 0
    outer loop
      vertex 14.0916 100.453 2.65
      vertex 15.5182 101.689 0
      vertex 14.0916 100.453 0
    endloop
  endfacet
  facet normal 0.415415 0.909632 -0
    outer loop
      vertex 12.2232 100.184 0
      vertex 10.5062 100.968 2.65
      vertex 12.2232 100.184 2.65
    endloop
  endfacet
  facet normal 0.415415 0.909632 0
    outer loop
      vertex 10.5062 100.968 2.65
      vertex 12.2232 100.184 0
      vertex 10.5062 100.968 0
    endloop
  endfacet
  facet normal 0.841254 0.54064 0
    outer loop
      vertex 10.5062 100.968 2.65
      vertex 9.4857 102.556 0
      vertex 9.4857 102.556 2.65
    endloop
  endfacet
  facet normal 0.841254 0.54064 0
    outer loop
      vertex 9.4857 102.556 0
      vertex 10.5062 100.968 2.65
      vertex 10.5062 100.968 0
    endloop
  endfacet
  facet normal -0.991445 -0.130527 0
    outer loop
      vertex 20.2 103.5 2.65
      vertex 19.9444 105.441 6.35
      vertex 19.9444 105.441 2.65
    endloop
  endfacet
  facet normal -0.991445 -0.130527 0
    outer loop
      vertex 19.9444 105.441 6.35
      vertex 20.2 103.5 2.65
      vertex 20.2 103.5 6.35
    endloop
  endfacet
  facet normal 0.991445 -0.130527 0
    outer loop
      vertex 5.2 103.5 6.35
      vertex 5.45556 105.441 2.65
      vertex 5.45556 105.441 6.35
    endloop
  endfacet
  facet normal 0.991445 -0.130527 0
    outer loop
      vertex 5.45556 105.441 2.65
      vertex 5.2 103.5 6.35
      vertex 5.2 103.5 2.65
    endloop
  endfacet
  facet normal -0.130525 -0.991445 0
    outer loop
      vertex 12.7 111 2.65
      vertex 14.6411 110.744 6.35
      vertex 12.7 111 6.35
    endloop
  endfacet
  facet normal -0.130525 -0.991445 -0
    outer loop
      vertex 14.6411 110.744 6.35
      vertex 12.7 111 2.65
      vertex 14.6411 110.744 2.65
    endloop
  endfacet
  facet normal 0 0 1
    outer loop
      vertex 16.05 103.5 2.65
      vertex 20.2 103.5 2.65
      vertex 19.9444 105.441 2.65
    endloop
  endfacet
  facet normal 0 0 1
    outer loop
      vertex 15.5182 105.311 2.65
      vertex 19.9444 105.441 2.65
      vertex 19.1952 107.25 2.65
    endloop
  endfacet
  facet normal 0 0 1
    outer loop
      vertex 20.2 103.5 2.65
      vertex 16.05 103.5 2.65
      vertex 19.9444 101.559 2.65
    endloop
  endfacet
  facet normal 0 0 1
    outer loop
      vertex 15.5182 105.311 2.65
      vertex 19.1952 107.25 2.65
      vertex 18.0033 108.803 2.65
    endloop
  endfacet
  facet normal -0 0 1
    outer loop
      vertex 15.5182 101.689 2.65
      vertex 19.9444 101.559 2.65
      vertex 16.05 103.5 2.65
    endloop
  endfacet
  facet normal 0 0 1
    outer loop
      vertex 14.0916 106.547 2.65
      vertex 18.0033 108.803 2.65
      vertex 16.45 109.995 2.65
    endloop
  endfacet
  facet normal 0 0 1
    outer loop
      vertex 19.9444 101.559 2.65
      vertex 15.5182 101.689 2.65
      vertex 19.1952 99.75 2.65
    endloop
  endfacet
  facet normal 0 0 1
    outer loop
      vertex 19.1952 99.75 2.65
      vertex 15.5182 101.689 2.65
      vertex 18.0033 98.1967 2.65
    endloop
  endfacet
  facet normal 0 0 1
    outer loop
      vertex 19.9444 105.441 2.65
      vertex 15.5182 105.311 2.65
      vertex 16.05 103.5 2.65
    endloop
  endfacet
  facet normal 0 0 1
    outer loop
      vertex 14.0916 106.547 2.65
      vertex 16.45 109.995 2.65
      vertex 14.6411 110.744 2.65
    endloop
  endfacet
  facet normal 0 0 1
    outer loop
      vertex 18.0033 108.803 2.65
      vertex 14.0916 106.547 2.65
      vertex 15.5182 105.311 2.65
    endloop
  endfacet
  facet normal 0 0 1
    outer loop
      vertex 12.2232 106.816 2.65
      vertex 14.6411 110.744 2.65
      vertex 12.7 111 2.65
    endloop
  endfacet
  facet normal 0 0 1
    outer loop
      vertex 14.6411 110.744 2.65
      vertex 12.2232 106.816 2.65
      vertex 14.0916 106.547 2.65
    endloop
  endfacet
  facet normal -0 0 1
    outer loop
      vertex 10.7589 110.744 2.65
      vertex 12.2232 106.816 2.65
      vertex 12.7 111 2.65
    endloop
  endfacet
  facet normal -0 0 1
    outer loop
      vertex 8.95 109.995 2.65
      vertex 12.2232 106.816 2.65
      vertex 10.7589 110.744 2.65
    endloop
  endfacet
  facet normal 0 0 1
    outer loop
      vertex 12.2232 106.816 2.65
      vertex 8.95 109.995 2.65
      vertex 10.5062 106.032 2.65
    endloop
  endfacet
  facet normal -0 0 1
    outer loop
      vertex 6.20481 107.25 2.65
      vertex 10.5062 106.032 2.65
      vertex 7.3967 108.803 2.65
    endloop
  endfacet
  facet normal -0 0 1
    outer loop
      vertex 7.3967 108.803 2.65
      vertex 10.5062 106.032 2.65
      vertex 8.95 109.995 2.65
    endloop
  endfacet
  facet normal -0 0 1
    outer loop
      vertex 14.0916 100.453 2.65
      vertex 18.0033 98.1967 2.65
      vertex 15.5182 101.689 2.65
    endloop
  endfacet
  facet normal 0 0 1
    outer loop
      vertex 18.0033 98.1967 2.65
      vertex 14.0916 100.453 2.65
      vertex 16.45 97.0048 2.65
    endloop
  endfacet
  facet normal 0 0 1
    outer loop
      vertex 16.45 97.0048 2.65
      vertex 14.0916 100.453 2.65
      vertex 14.6411 96.2556 2.65
    endloop
  endfacet
  facet normal -0 0 1
    outer loop
      vertex 12.2232 100.184 2.65
      vertex 14.6411 96.2556 2.65
      vertex 14.0916 100.453 2.65
    endloop
  endfacet
  facet normal 0 0 1
    outer loop
      vertex 14.6411 96.2556 2.65
      vertex 12.2232 100.184 2.65
      vertex 12.7511 96.0067 2.65
    endloop
  endfacet
  facet normal 0 0 1
    outer loop
      vertex 12.7511 96.0067 2.65
      vertex 12.2232 100.184 2.65
      vertex 12.7 96 2.65
    endloop
  endfacet
  facet normal 0 0 1
    outer loop
      vertex 12.2232 100.184 2.65
      vertex 10.7589 96.2556 2.65
      vertex 12.7 96 2.65
    endloop
  endfacet
  facet normal 0 0 1
    outer loop
      vertex 8.95 97.0048 2.65
      vertex 12.2232 100.184 2.65
      vertex 10.5062 100.968 2.65
    endloop
  endfacet
  facet normal 0 0 1
    outer loop
      vertex 6.20481 99.75 2.65
      vertex 10.5062 100.968 2.65
      vertex 9.4857 102.556 2.65
    endloop
  endfacet
  facet normal 0 0 1
    outer loop
      vertex 12.2232 100.184 2.65
      vertex 8.95 97.0048 2.65
      vertex 10.7589 96.2556 2.65
    endloop
  endfacet
  facet normal 0 0 1
    outer loop
      vertex 10.5062 106.032 2.65
      vertex 6.20481 107.25 2.65
      vertex 9.4857 104.444 2.65
    endloop
  endfacet
  facet normal -0 0 1
    outer loop
      vertex 5.45556 105.441 2.65
      vertex 9.4857 104.444 2.65
      vertex 6.20481 107.25 2.65
    endloop
  endfacet
  facet normal 0 0 1
    outer loop
      vertex 10.5062 100.968 2.65
      vertex 7.3967 98.1967 2.65
      vertex 8.95 97.0048 2.65
    endloop
  endfacet
  facet normal 0 0 1
    outer loop
      vertex 5.2 103.5 2.65
      vertex 9.4857 104.444 2.65
      vertex 5.45556 105.441 2.65
    endloop
  endfacet
  facet normal 0 0 1
    outer loop
      vertex 10.5062 100.968 2.65
      vertex 6.20481 99.75 2.65
      vertex 7.3967 98.1967 2.65
    endloop
  endfacet
  facet normal 0 0 1
    outer loop
      vertex 9.4857 104.444 2.65
      vertex 5.2 103.5 2.65
      vertex 9.4857 102.556 2.65
    endloop
  endfacet
  facet normal 0 0 1
    outer loop
      vertex 9.4857 102.556 2.65
      vertex 5.45556 101.559 2.65
      vertex 6.20481 99.75 2.65
    endloop
  endfacet
  facet normal 0 0 1
    outer loop
      vertex 9.4857 102.556 2.65
      vertex 5.2 103.5 2.65
      vertex 5.45556 101.559 2.65
    endloop
  endfacet
  facet normal -0.793353 -0.608762 0
    outer loop
      vertex 19.1952 107.25 2.65
      vertex 18.0033 108.803 6.35
      vertex 18.0033 108.803 2.65
    endloop
  endfacet
  facet normal -0.793353 -0.608762 0
    outer loop
      vertex 18.0033 108.803 6.35
      vertex 19.1952 107.25 2.65
      vertex 19.1952 107.25 6.35
    endloop
  endfacet
  facet normal -0.92388 -0.382682 0
    outer loop
      vertex 19.9444 105.441 2.65
      vertex 19.1952 107.25 6.35
      vertex 19.1952 107.25 2.65
    endloop
  endfacet
  facet normal -0.92388 -0.382682 0
    outer loop
      vertex 19.1952 107.25 6.35
      vertex 19.9444 105.441 2.65
      vertex 19.9444 105.441 6.35
    endloop
  endfacet
  facet normal -0.608763 -0.793352 0
    outer loop
      vertex 16.45 109.995 2.65
      vertex 18.0033 108.803 6.35
      vertex 16.45 109.995 6.35
    endloop
  endfacet
  facet normal -0.608763 -0.793352 -0
    outer loop
      vertex 18.0033 108.803 6.35
      vertex 16.45 109.995 2.65
      vertex 18.0033 108.803 2.65
    endloop
  endfacet
  facet normal 0.608763 -0.793352 0
    outer loop
      vertex 7.3967 108.803 2.65
      vertex 8.95 109.995 6.35
      vertex 7.3967 108.803 6.35
    endloop
  endfacet
  facet normal 0.608763 -0.793352 0
    outer loop
      vertex 8.95 109.995 6.35
      vertex 7.3967 108.803 2.65
      vertex 8.95 109.995 2.65
    endloop
  endfacet
  facet normal 0.130525 -0.991445 0
    outer loop
      vertex 10.7589 110.744 2.65
      vertex 12.7 111 6.35
      vertex 10.7589 110.744 6.35
    endloop
  endfacet
  facet normal 0.130525 -0.991445 0
    outer loop
      vertex 12.7 111 6.35
      vertex 10.7589 110.744 2.65
      vertex 12.7 111 2.65
    endloop
  endfacet
  facet normal 0.608763 0.793352 -0
    outer loop
      vertex 8.95 97.0048 2.65
      vertex 7.3967 98.1967 6.35
      vertex 8.95 97.0048 6.35
    endloop
  endfacet
  facet normal 0.608763 0.793352 0
    outer loop
      vertex 7.3967 98.1967 6.35
      vertex 8.95 97.0048 2.65
      vertex 7.3967 98.1967 2.65
    endloop
  endfacet
  facet normal 0.991445 0.130527 0
    outer loop
      vertex 5.45556 101.559 6.35
      vertex 5.2 103.5 2.65
      vertex 5.2 103.5 6.35
    endloop
  endfacet
  facet normal 0.991445 0.130527 0
    outer loop
      vertex 5.2 103.5 2.65
      vertex 5.45556 101.559 6.35
      vertex 5.45556 101.559 2.65
    endloop
  endfacet
  facet normal -0.382683 -0.92388 0
    outer loop
      vertex 14.6411 110.744 2.65
      vertex 16.45 109.995 6.35
      vertex 14.6411 110.744 6.35
    endloop
  endfacet
  facet normal -0.382683 -0.92388 -0
    outer loop
      vertex 16.45 109.995 6.35
      vertex 14.6411 110.744 2.65
      vertex 16.45 109.995 2.65
    endloop
  endfacet
  facet normal 0.793353 -0.608762 0
    outer loop
      vertex 6.20481 107.25 6.35
      vertex 7.3967 108.803 2.65
      vertex 7.3967 108.803 6.35
    endloop
  endfacet
  facet normal 0.793353 -0.608762 0
    outer loop
      vertex 7.3967 108.803 2.65
      vertex 6.20481 107.25 6.35
      vertex 6.20481 107.25 2.65
    endloop
  endfacet
  facet normal 0.92388 -0.382683 0
    outer loop
      vertex 5.45556 105.441 6.35
      vertex 6.20481 107.25 2.65
      vertex 6.20481 107.25 6.35
    endloop
  endfacet
  facet normal 0.92388 -0.382683 0
    outer loop
      vertex 6.20481 107.25 2.65
      vertex 5.45556 105.441 6.35
      vertex 5.45556 105.441 2.65
    endloop
  endfacet
  facet normal 0.382683 -0.92388 0
    outer loop
      vertex 8.95 109.995 2.65
      vertex 10.7589 110.744 6.35
      vertex 8.95 109.995 6.35
    endloop
  endfacet
  facet normal 0.382683 -0.92388 0
    outer loop
      vertex 10.7589 110.744 6.35
      vertex 8.95 109.995 2.65
      vertex 10.7589 110.744 2.65
    endloop
  endfacet
  facet normal -0.991445 0.130527 0
    outer loop
      vertex 19.9444 101.559 2.65
      vertex 20.2 103.5 6.35
      vertex 20.2 103.5 2.65
    endloop
  endfacet
  facet normal -0.991445 0.130527 0
    outer loop
      vertex 20.2 103.5 6.35
      vertex 19.9444 101.559 2.65
      vertex 19.9444 101.559 6.35
    endloop
  endfacet
  facet normal -0.130525 0.991445 0
    outer loop
      vertex 14.6411 96.2556 2.65
      vertex 12.7511 96.0067 6.35
      vertex 14.6411 96.2556 6.35
    endloop
  endfacet
  facet normal -0.130525 0.991445 0
    outer loop
      vertex 12.7511 96.0067 6.35
      vertex 14.6411 96.2556 2.65
      vertex 12.7511 96.0067 2.65
    endloop
  endfacet
  facet normal -0.608763 0.793352 0
    outer loop
      vertex 18.0033 98.1967 2.65
      vertex 16.45 97.0048 6.35
      vertex 18.0033 98.1967 6.35
    endloop
  endfacet
  facet normal -0.608763 0.793352 0
    outer loop
      vertex 16.45 97.0048 6.35
      vertex 18.0033 98.1967 2.65
      vertex 16.45 97.0048 2.65
    endloop
  endfacet
  facet normal 0.382683 0.92388 -0
    outer loop
      vertex 10.7589 96.2556 2.65
      vertex 8.95 97.0048 6.35
      vertex 10.7589 96.2556 6.35
    endloop
  endfacet
  facet normal 0.382683 0.92388 0
    outer loop
      vertex 8.95 97.0048 6.35
      vertex 10.7589 96.2556 2.65
      vertex 8.95 97.0048 2.65
    endloop
  endfacet
  facet normal 0.92388 0.382683 0
    outer loop
      vertex 6.20481 99.75 6.35
      vertex 5.45556 101.559 2.65
      vertex 5.45556 101.559 6.35
    endloop
  endfacet
  facet normal 0.92388 0.382683 0
    outer loop
      vertex 5.45556 101.559 2.65
      vertex 6.20481 99.75 6.35
      vertex 6.20481 99.75 2.65
    endloop
  endfacet
  facet normal -0.382683 0.92388 0
    outer loop
      vertex 16.45 97.0048 2.65
      vertex 14.6411 96.2556 6.35
      vertex 16.45 97.0048 6.35
    endloop
  endfacet
  facet normal -0.382683 0.92388 0
    outer loop
      vertex 14.6411 96.2556 6.35
      vertex 16.45 97.0048 2.65
      vertex 14.6411 96.2556 2.65
    endloop
  endfacet
  facet normal -0.92388 0.382682 0
    outer loop
      vertex 19.1952 99.75 2.65
      vertex 19.9444 101.559 6.35
      vertex 19.9444 101.559 2.65
    endloop
  endfacet
  facet normal -0.92388 0.382682 0
    outer loop
      vertex 19.9444 101.559 6.35
      vertex 19.1952 99.75 2.65
      vertex 19.1952 99.75 6.35
    endloop
  endfacet
  facet normal -0.793353 0.608762 0
    outer loop
      vertex 18.0033 98.1967 2.65
      vertex 19.1952 99.75 6.35
      vertex 19.1952 99.75 2.65
    endloop
  endfacet
  facet normal -0.793353 0.608762 0
    outer loop
      vertex 19.1952 99.75 6.35
      vertex 18.0033 98.1967 2.65
      vertex 18.0033 98.1967 6.35
    endloop
  endfacet
  facet normal 0.130525 0.991445 -0
    outer loop
      vertex 12.7 96 2.65
      vertex 10.7589 96.2556 6.35
      vertex 12.7 96 6.35
    endloop
  endfacet
  facet normal 0.130525 0.991445 0
    outer loop
      vertex 10.7589 96.2556 6.35
      vertex 12.7 96 2.65
      vertex 10.7589 96.2556 2.65
    endloop
  endfacet
  facet normal 0.793353 0.608762 0
    outer loop
      vertex 7.3967 98.1967 6.35
      vertex 6.20481 99.75 2.65
      vertex 6.20481 99.75 6.35
    endloop
  endfacet
  facet normal 0.793353 0.608762 0
    outer loop
      vertex 6.20481 99.75 2.65
      vertex 7.3967 98.1967 6.35
      vertex 7.3967 98.1967 2.65
    endloop
  endfacet
  facet normal 0.994522 0.104528 0
    outer loop
      vertex 25.4 100 6.35
      vertex 25.1225 102.64 0
      vertex 25.1225 102.64 6.35
    endloop
  endfacet
  facet normal 0.994522 0.104528 0
    outer loop
      vertex 25.1225 102.64 0
      vertex 25.4 100 6.35
      vertex 25.4 100 0
    endloop
  endfacet
  facet normal -0.994522 0.104529 0
    outer loop
      vertex 1.90735e-07 100 0
      vertex 0.277526 102.64 6.35
      vertex 0.277526 102.64 0
    endloop
  endfacet
  facet normal -0.994522 0.104529 0
    outer loop
      vertex 0.277526 102.64 6.35
      vertex 1.90735e-07 100 0
      vertex 1.90735e-07 100 6.35
    endloop
  endfacet
  facet normal 0 1 -0
    outer loop
      vertex 14.0275 112.63 0
      vertex 11.3725 112.63 6.35
      vertex 14.0275 112.63 6.35
    endloop
  endfacet
  facet normal 0 1 0
    outer loop
      vertex 11.3725 112.63 6.35
      vertex 14.0275 112.63 0
      vertex 11.3725 112.63 0
    endloop
  endfacet
  facet normal 0.743145 0.66913 0
    outer loop
      vertex 22.9745 107.465 6.35
      vertex 21.198 109.438 0
      vertex 21.198 109.438 6.35
    endloop
  endfacet
  facet normal 0.743145 0.66913 0
    outer loop
      vertex 21.198 109.438 0
      vertex 22.9745 107.465 6.35
      vertex 22.9745 107.465 0
    endloop
  endfacet
  facet normal 0.951056 0.309017 0
    outer loop
      vertex 25.1225 102.64 6.35
      vertex 24.302 105.166 0
      vertex 24.302 105.166 6.35
    endloop
  endfacet
  facet normal 0.951056 0.309017 0
    outer loop
      vertex 24.302 105.166 0
      vertex 25.1225 102.64 6.35
      vertex 25.1225 102.64 0
    endloop
  endfacet
  facet normal -0.587784 0.809018 0
    outer loop
      vertex 6.35 110.999 0
      vertex 4.20204 109.438 6.35
      vertex 6.35 110.999 6.35
    endloop
  endfacet
  facet normal -0.587784 0.809018 0
    outer loop
      vertex 4.20204 109.438 6.35
      vertex 6.35 110.999 0
      vertex 4.20204 109.438 0
    endloop
  endfacet
  facet normal -0.207911 0.978148 0
    outer loop
      vertex 11.3725 112.63 0
      vertex 8.77548 112.078 6.35
      vertex 11.3725 112.63 6.35
    endloop
  endfacet
  facet normal -0.207911 0.978148 0
    outer loop
      vertex 8.77548 112.078 6.35
      vertex 11.3725 112.63 0
      vertex 8.77548 112.078 0
    endloop
  endfacet
  facet normal 0.866025 0.5 0
    outer loop
      vertex 24.302 105.166 6.35
      vertex 22.9745 107.465 0
      vertex 22.9745 107.465 6.35
    endloop
  endfacet
  facet normal 0.866025 0.5 0
    outer loop
      vertex 22.9745 107.465 0
      vertex 24.302 105.166 6.35
      vertex 24.302 105.166 0
    endloop
  endfacet
  facet normal 0.406737 0.913545 -0
    outer loop
      vertex 19.05 110.999 0
      vertex 16.6245 112.078 6.35
      vertex 19.05 110.999 6.35
    endloop
  endfacet
  facet normal 0.406737 0.913545 0
    outer loop
      vertex 16.6245 112.078 6.35
      vertex 19.05 110.999 0
      vertex 16.6245 112.078 0
    endloop
  endfacet
  facet normal 0.207911 0.978148 -0
    outer loop
      vertex 16.6245 112.078 0
      vertex 14.0275 112.63 6.35
      vertex 16.6245 112.078 6.35
    endloop
  endfacet
  facet normal 0.207911 0.978148 0
    outer loop
      vertex 14.0275 112.63 6.35
      vertex 16.6245 112.078 0
      vertex 14.0275 112.63 0
    endloop
  endfacet
  facet normal 0.587784 0.809018 -0
    outer loop
      vertex 21.198 109.438 0
      vertex 19.05 110.999 6.35
      vertex 21.198 109.438 6.35
    endloop
  endfacet
  facet normal 0.587784 0.809018 0
    outer loop
      vertex 19.05 110.999 6.35
      vertex 21.198 109.438 0
      vertex 19.05 110.999 0
    endloop
  endfacet
  facet normal -0.866025 0.5 0
    outer loop
      vertex 1.09797 105.166 0
      vertex 2.42548 107.465 6.35
      vertex 2.42548 107.465 0
    endloop
  endfacet
  facet normal -0.866025 0.5 0
    outer loop
      vertex 2.42548 107.465 6.35
      vertex 1.09797 105.166 0
      vertex 1.09797 105.166 6.35
    endloop
  endfacet
  facet normal -0.743145 0.66913 0
    outer loop
      vertex 2.42548 107.465 0
      vertex 4.20204 109.438 6.35
      vertex 4.20204 109.438 0
    endloop
  endfacet
  facet normal -0.743145 0.66913 0
    outer loop
      vertex 4.20204 109.438 6.35
      vertex 2.42548 107.465 0
      vertex 2.42548 107.465 6.35
    endloop
  endfacet
  facet normal -0.951057 0.309017 0
    outer loop
      vertex 0.277526 102.64 0
      vertex 1.09797 105.166 6.35
      vertex 1.09797 105.166 0
    endloop
  endfacet
  facet normal -0.951057 0.309017 0
    outer loop
      vertex 1.09797 105.166 6.35
      vertex 0.277526 102.64 0
      vertex 0.277526 102.64 6.35
    endloop
  endfacet
  facet normal -0.406737 0.913545 0
    outer loop
      vertex 8.77548 112.078 0
      vertex 6.35 110.999 6.35
      vertex 8.77548 112.078 6.35
    endloop
  endfacet
  facet normal -0.406737 0.913545 0
    outer loop
      vertex 6.35 110.999 6.35
      vertex 8.77548 112.078 0
      vertex 6.35 110.999 0
    endloop
  endfacet
  facet normal -1 0 0
    outer loop
      vertex 0 0 0
      vertex 0 100 6.35
      vertex 0 100 0
    endloop
  endfacet
  facet normal -1 -0 0
    outer loop
      vertex 0 100 6.35
      vertex 0 0 0
      vertex 0 0 6.35
    endloop
  endfacet
  facet normal 1 -0 0
    outer loop
      vertex 25.4 1.81472e-06 6.35
      vertex 25.4 100 0
      vertex 25.4 100 6.35
    endloop
  endfacet
  facet normal 1 0 0
    outer loop
      vertex 25.4 100 0
      vertex 25.4 1.81472e-06 6.35
      vertex 25.4 1.81472e-06 0
    endloop
  endfacet
  facet normal 0 1 -0
    outer loop
      vertex 1.90735e-07 100 0
      vertex 0 100 6.35
      vertex 1.90735e-07 100 6.35
    endloop
  endfacet
  facet normal 0 1 0
    outer loop
      vertex 0 100 6.35
      vertex 1.90735e-07 100 0
      vertex 0 100 0
    endloop
  endfacet
  facet normal 0 -1 0
    outer loop
      vertex 0 0 0
      vertex 1.90735e-07 0 6.35
      vertex 0 0 6.35
    endloop
  endfacet
  facet normal 0 -1 -0
    outer loop
      vertex 1.90735e-07 0 6.35
      vertex 0 0 0
      vertex 1.90735e-07 0 0
    endloop
  endfacet
  facet normal -0.13053 0.991444 0
    outer loop
      vertex 12.7511 96.0067 2.65
      vertex 12.7 96 6.35
      vertex 12.7511 96.0067 6.35
    endloop
  endfacet
  facet normal -0.13053 0.991444 0
    outer loop
      vertex 12.7 96 6.35
      vertex 12.7511 96.0067 2.65
      vertex 12.7 96 2.65
    endloop
  endfacet
  facet normal -0.608762 -0.793353 0
    outer loop
      vertex 16.45 2.99519 2.65
      vertex 18.0033 1.8033 6.35
      vertex 16.45 2.99519 6.35
    endloop
  endfacet
  facet normal -0.608762 -0.793353 -0
    outer loop
      vertex 18.0033 1.8033 6.35
      vertex 16.45 2.99519 2.65
      vertex 18.0033 1.8033 2.65
    endloop
  endfacet
  facet normal -0.793353 -0.608762 0
    outer loop
      vertex 18.2417 1.49264 2.65
      vertex 18.0033 1.8033 6.35
      vertex 18.0033 1.8033 2.65
    endloop
  endfacet
  facet normal -0.793353 -0.608762 0
    outer loop
      vertex 18.0033 1.8033 6.35
      vertex 18.2417 1.49264 2.65
      vertex 18.2417 1.49264 6.35
    endloop
  endfacet
  facet normal -0.130527 -0.991445 0
    outer loop
      vertex 12.7 4 2.65
      vertex 14.6411 3.74444 6.35
      vertex 12.7 4 6.35
    endloop
  endfacet
  facet normal -0.130527 -0.991445 -0
    outer loop
      vertex 14.6411 3.74444 6.35
      vertex 12.7 4 2.65
      vertex 14.6411 3.74444 2.65
    endloop
  endfacet
  facet normal -0.382683 -0.92388 0
    outer loop
      vertex 14.6411 3.74444 2.65
      vertex 16.45 2.99519 6.35
      vertex 14.6411 3.74444 6.35
    endloop
  endfacet
  facet normal -0.382683 -0.92388 -0
    outer loop
      vertex 16.45 2.99519 6.35
      vertex 14.6411 3.74444 2.65
      vertex 16.45 2.99519 2.65
    endloop
  endfacet
  facet normal -0.809016 -0.587786 0
    outer loop
      vertex 13.309 15 0
      vertex 12.8882 15.5792 6.35
      vertex 12.8882 15.5792 0
    endloop
  endfacet
  facet normal -0.809016 -0.587786 0
    outer loop
      vertex 12.8882 15.5792 6.35
      vertex 13.309 15 0
      vertex 13.309 15 6.35
    endloop
  endfacet
  facet normal 1 -0 0
    outer loop
      vertex 12.2073 14.6421 6.35
      vertex 12.2073 15.3579 0
      vertex 12.2073 15.3579 6.35
    endloop
  endfacet
  facet normal 1 0 0
    outer loop
      vertex 12.2073 15.3579 0
      vertex 12.2073 14.6421 6.35
      vertex 12.2073 14.6421 0
    endloop
  endfacet
  facet normal 0.309018 -0.951056 0
    outer loop
      vertex 12.2073 15.3579 0
      vertex 12.8882 15.5792 6.35
      vertex 12.2073 15.3579 6.35
    endloop
  endfacet
  facet normal 0.309018 -0.951056 0
    outer loop
      vertex 12.8882 15.5792 6.35
      vertex 12.2073 15.3579 0
      vertex 12.8882 15.5792 0
    endloop
  endfacet
  facet normal -0.809017 0.587785 0
    outer loop
      vertex 12.8882 14.4208 0
      vertex 13.309 15 6.35
      vertex 13.309 15 0
    endloop
  endfacet
  facet normal -0.809017 0.587785 0
    outer loop
      vertex 13.309 15 6.35
      vertex 12.8882 14.4208 0
      vertex 12.8882 14.4208 6.35
    endloop
  endfacet
  facet normal 0.309018 0.951056 -0
    outer loop
      vertex 12.8882 14.4208 0
      vertex 12.2073 14.6421 6.35
      vertex 12.8882 14.4208 6.35
    endloop
  endfacet
  facet normal 0.309018 0.951056 0
    outer loop
      vertex 12.2073 14.6421 6.35
      vertex 12.8882 14.4208 0
      vertex 12.2073 14.6421 0
    endloop
  endfacet
  facet normal -0.809018 -0.587784 0
    outer loop
      vertex 13.309 85 0
      vertex 12.8882 85.5792 6.35
      vertex 12.8882 85.5792 0
    endloop
  endfacet
  facet normal -0.809018 -0.587784 0
    outer loop
      vertex 12.8882 85.5792 6.35
      vertex 13.309 85 0
      vertex 13.309 85 6.35
    endloop
  endfacet
  facet normal 1 -0 0
    outer loop
      vertex 12.2073 84.6421 6.35
      vertex 12.2073 85.3579 0
      vertex 12.2073 85.3579 6.35
    endloop
  endfacet
  facet normal 1 0 0
    outer loop
      vertex 12.2073 85.3579 0
      vertex 12.2073 84.6421 6.35
      vertex 12.2073 84.6421 0
    endloop
  endfacet
  facet normal 0.30902 -0.951055 0
    outer loop
      vertex 12.2073 85.3579 0
      vertex 12.8882 85.5792 6.35
      vertex 12.2073 85.3579 6.35
    endloop
  endfacet
  facet normal 0.30902 -0.951055 0
    outer loop
      vertex 12.8882 85.5792 6.35
      vertex 12.2073 85.3579 0
      vertex 12.8882 85.5792 0
    endloop
  endfacet
  facet normal 0.30902 0.951055 -0
    outer loop
      vertex 12.8882 84.4208 0
      vertex 12.2073 84.6421 6.35
      vertex 12.8882 84.4208 6.35
    endloop
  endfacet
  facet normal 0.30902 0.951055 0
    outer loop
      vertex 12.2073 84.6421 6.35
      vertex 12.8882 84.4208 0
      vertex 12.2073 84.6421 0
    endloop
  endfacet
  facet normal -0.809018 0.587784 0
    outer loop
      vertex 12.8882 84.4208 0
      vertex 13.309 85 6.35
      vertex 13.309 85 0
    endloop
  endfacet
  facet normal -0.809018 0.587784 0
    outer loop
      vertex 13.309 85 6.35
      vertex 12.8882 84.4208 0
      vertex 12.8882 84.4208 6.35
    endloop
  endfacet
endsolid OpenSCAD_Model
